<!--

https://github.com/datalog/qrcode-svg

--><svg viewBox="0 0 45 45" width="256" height="256" fill="#000000" shape-rendering="crispEdges" xmlns="http://www.w3.org/2000/svg" version="1.1"><path transform="matrix(1,0,0,1,4,4)" d="M34,36h3v1h-3v-1zM32,36h1v1h-1v-1zM30,36h1v1h-1v-1zM25,36h2v1h-2v-1zM22,36h2v1h-2v-1zM17,36h1v1h-1v-1zM13,36h3v1h-3v-1zM8,36h3v1h-3v-1zM0,36h7v1h-7v-1zM36,35h1v1h-1v-1zM32,35h1v1h-1v-1zM30,35h1v1h-1v-1zM26,35h3v1h-3v-1zM20,35h4v1h-4v-1zM16,35h1v1h-1v-1zM14,35h1v1h-1v-1zM11,35h1v1h-1v-1zM9,35h1v1h-1v-1zM6,35h1v1h-1v-1zM0,35h1v1h-1v-1zM34,34h3v1h-3v-1zM25,34h4v1h-4v-1zM22,34h1v1h-1v-1zM20,34h1v1h-1v-1zM17,34h1v1h-1v-1zM15,34h1v1h-1v-1zM13,34h1v1h-1v-1zM10,34h1v1h-1v-1zM8,34h1v1h-1v-1zM6,34h1v1h-1v-1zM2,34h3v1h-3v-1zM0,34h1v1h-1v-1zM34,33h3v1h-3v-1zM32,33h1v1h-1v-1zM29,33h2v1h-2v-1zM27,33h1v1h-1v-1zM23,33h1v1h-1v-1zM17,33h4v1h-4v-1zM14,33h2v1h-2v-1zM11,33h2v1h-2v-1zM8,33h1v1h-1v-1zM6,33h1v1h-1v-1zM2,33h3v1h-3v-1zM0,33h1v1h-1v-1zM36,32h1v1h-1v-1zM34,32h1v1h-1v-1zM27,32h6v1h-6v-1zM25,32h1v1h-1v-1zM22,32h1v1h-1v-1zM17,32h1v1h-1v-1zM15,32h1v1h-1v-1zM12,32h2v1h-2v-1zM8,32h1v1h-1v-1zM6,32h1v1h-1v-1zM2,32h3v1h-3v-1zM0,32h1v1h-1v-1zM32,31h2v1h-2v-1zM28,31h1v1h-1v-1zM26,31h1v1h-1v-1zM20,31h2v1h-2v-1zM18,31h1v1h-1v-1zM13,31h1v1h-1v-1zM10,31h2v1h-2v-1zM8,31h1v1h-1v-1zM6,31h1v1h-1v-1zM0,31h1v1h-1v-1zM36,30h1v1h-1v-1zM34,30h1v1h-1v-1zM32,30h1v1h-1v-1zM30,30h1v1h-1v-1zM28,30h1v1h-1v-1zM25,30h1v1h-1v-1zM15,30h1v1h-1v-1zM12,30h1v1h-1v-1zM10,30h1v1h-1v-1zM0,30h7v1h-7v-1zM32,29h2v1h-2v-1zM28,29h1v1h-1v-1zM23,29h1v1h-1v-1zM18,29h4v1h-4v-1zM16,29h1v1h-1v-1zM12,29h2v1h-2v-1zM8,29h1v1h-1v-1zM36,28h1v1h-1v-1zM24,28h11v1h-11v-1zM22,28h1v1h-1v-1zM17,28h3v1h-3v-1zM8,28h3v1h-3v-1zM5,28h2v1h-2v-1zM2,28h1v1h-1v-1zM0,28h1v1h-1v-1zM35,27h2v1h-2v-1zM33,27h1v1h-1v-1zM30,27h2v1h-2v-1zM26,27h2v1h-2v-1zM18,27h5v1h-5v-1zM16,27h1v1h-1v-1zM14,27h1v1h-1v-1zM11,27h1v1h-1v-1zM7,27h2v1h-2v-1zM2,27h3v1h-3v-1zM0,27h1v1h-1v-1zM33,26h4v1h-4v-1zM24,26h7v1h-7v-1zM21,26h2v1h-2v-1zM18,26h1v1h-1v-1zM12,26h2v1h-2v-1zM8,26h2v1h-2v-1zM4,26h3v1h-3v-1zM2,26h1v1h-1v-1zM0,26h1v1h-1v-1zM34,25h1v1h-1v-1zM31,25h1v1h-1v-1zM28,25h2v1h-2v-1zM25,25h2v1h-2v-1zM22,25h2v1h-2v-1zM18,25h3v1h-3v-1zM15,25h2v1h-2v-1zM8,25h2v1h-2v-1zM5,25h1v1h-1v-1zM3,25h1v1h-1v-1zM0,25h2v1h-2v-1zM34,24h2v1h-2v-1zM25,24h8v1h-8v-1zM22,24h2v1h-2v-1zM17,24h1v1h-1v-1zM13,24h2v1h-2v-1zM8,24h1v1h-1v-1zM5,24h2v1h-2v-1zM1,24h2v1h-2v-1zM35,23h1v1h-1v-1zM31,23h2v1h-2v-1zM26,23h4v1h-4v-1zM20,23h3v1h-3v-1zM18,23h1v1h-1v-1zM15,23h2v1h-2v-1zM12,23h2v1h-2v-1zM10,23h1v1h-1v-1zM8,23h1v1h-1v-1zM5,23h1v1h-1v-1zM3,23h1v1h-1v-1zM0,23h2v1h-2v-1zM35,22h2v1h-2v-1zM30,22h4v1h-4v-1zM27,22h2v1h-2v-1zM24,22h1v1h-1v-1zM20,22h2v1h-2v-1zM18,22h1v1h-1v-1zM15,22h1v1h-1v-1zM10,22h2v1h-2v-1zM8,22h1v1h-1v-1zM6,22h1v1h-1v-1zM3,22h2v1h-2v-1zM33,21h1v1h-1v-1zM28,21h2v1h-2v-1zM23,21h1v1h-1v-1zM19,21h3v1h-3v-1zM16,21h1v1h-1v-1zM12,21h1v1h-1v-1zM7,21h4v1h-4v-1zM5,21h1v1h-1v-1zM0,21h1v1h-1v-1zM32,20h3v1h-3v-1zM29,20h2v1h-2v-1zM27,20h1v1h-1v-1zM25,20h1v1h-1v-1zM22,20h1v1h-1v-1zM20,20h1v1h-1v-1zM17,20h1v1h-1v-1zM15,20h1v1h-1v-1zM13,20h1v1h-1v-1zM10,20h2v1h-2v-1zM6,20h2v1h-2v-1zM0,20h1v1h-1v-1zM36,19h1v1h-1v-1zM29,19h2v1h-2v-1zM26,19h1v1h-1v-1zM21,19h4v1h-4v-1zM18,19h2v1h-2v-1zM11,19h5v1h-5v-1zM8,19h1v1h-1v-1zM4,19h1v1h-1v-1zM1,19h2v1h-2v-1zM35,18h2v1h-2v-1zM32,18h1v1h-1v-1zM26,18h2v1h-2v-1zM24,18h1v1h-1v-1zM22,18h1v1h-1v-1zM20,18h1v1h-1v-1zM18,18h1v1h-1v-1zM11,18h6v1h-6v-1zM6,18h4v1h-4v-1zM1,18h1v1h-1v-1zM33,17h3v1h-3v-1zM31,17h1v1h-1v-1zM28,17h2v1h-2v-1zM25,17h1v1h-1v-1zM23,17h1v1h-1v-1zM19,17h2v1h-2v-1zM14,17h2v1h-2v-1zM12,17h1v1h-1v-1zM10,17h1v1h-1v-1zM7,17h1v1h-1v-1zM5,17h1v1h-1v-1zM3,17h1v1h-1v-1zM1,17h1v1h-1v-1zM34,16h2v1h-2v-1zM32,16h1v1h-1v-1zM29,16h2v1h-2v-1zM24,16h4v1h-4v-1zM22,16h1v1h-1v-1zM16,16h2v1h-2v-1zM14,16h1v1h-1v-1zM6,16h6v1h-6v-1zM0,16h2v1h-2v-1zM35,15h2v1h-2v-1zM31,15h2v1h-2v-1zM26,15h1v1h-1v-1zM21,15h1v1h-1v-1zM18,15h2v1h-2v-1zM16,15h1v1h-1v-1zM11,15h2v1h-2v-1zM8,15h1v1h-1v-1zM4,15h1v1h-1v-1zM2,15h1v1h-1v-1zM0,15h1v1h-1v-1zM35,14h2v1h-2v-1zM31,14h3v1h-3v-1zM29,14h1v1h-1v-1zM27,14h1v1h-1v-1zM21,14h1v1h-1v-1zM15,14h3v1h-3v-1zM10,14h3v1h-3v-1zM5,14h2v1h-2v-1zM1,14h2v1h-2v-1zM31,13h1v1h-1v-1zM25,13h1v1h-1v-1zM23,13h1v1h-1v-1zM19,13h3v1h-3v-1zM16,13h2v1h-2v-1zM13,13h2v1h-2v-1zM9,13h1v1h-1v-1zM7,13h1v1h-1v-1zM5,13h1v1h-1v-1zM1,13h3v1h-3v-1zM32,12h5v1h-5v-1zM29,12h2v1h-2v-1zM24,12h4v1h-4v-1zM19,12h1v1h-1v-1zM17,12h1v1h-1v-1zM14,12h1v1h-1v-1zM4,12h9v1h-9v-1zM2,12h1v1h-1v-1zM36,11h1v1h-1v-1zM26,11h4v1h-4v-1zM24,11h1v1h-1v-1zM21,11h2v1h-2v-1zM16,11h1v1h-1v-1zM10,11h1v1h-1v-1zM8,11h1v1h-1v-1zM4,11h2v1h-2v-1zM0,11h2v1h-2v-1zM35,10h2v1h-2v-1zM25,10h7v1h-7v-1zM20,10h3v1h-3v-1zM17,10h2v1h-2v-1zM14,10h1v1h-1v-1zM11,10h2v1h-2v-1zM9,10h1v1h-1v-1zM6,10h2v1h-2v-1zM3,10h2v1h-2v-1zM35,9h1v1h-1v-1zM33,9h1v1h-1v-1zM31,9h1v1h-1v-1zM28,9h1v1h-1v-1zM25,9h1v1h-1v-1zM22,9h2v1h-2v-1zM18,9h3v1h-3v-1zM13,9h4v1h-4v-1zM10,9h2v1h-2v-1zM7,9h1v1h-1v-1zM5,9h1v1h-1v-1zM0,9h3v1h-3v-1zM30,8h5v1h-5v-1zM24,8h3v1h-3v-1zM22,8h1v1h-1v-1zM17,8h3v1h-3v-1zM15,8h1v1h-1v-1zM12,8h1v1h-1v-1zM2,8h5v1h-5v-1zM0,8h1v1h-1v-1zM28,7h1v1h-1v-1zM26,7h1v1h-1v-1zM19,7h6v1h-6v-1zM11,7h3v1h-3v-1zM8,7h1v1h-1v-1zM30,6h7v1h-7v-1zM28,6h1v1h-1v-1zM26,6h1v1h-1v-1zM24,6h1v1h-1v-1zM22,6h1v1h-1v-1zM20,6h1v1h-1v-1zM18,6h1v1h-1v-1zM16,6h1v1h-1v-1zM14,6h1v1h-1v-1zM12,6h1v1h-1v-1zM10,6h1v1h-1v-1zM8,6h1v1h-1v-1zM0,6h7v1h-7v-1zM36,5h1v1h-1v-1zM30,5h1v1h-1v-1zM27,5h1v1h-1v-1zM25,5h1v1h-1v-1zM16,5h3v1h-3v-1zM13,5h1v1h-1v-1zM10,5h1v1h-1v-1zM8,5h1v1h-1v-1zM6,5h1v1h-1v-1zM0,5h1v1h-1v-1zM36,4h1v1h-1v-1zM32,4h3v1h-3v-1zM30,4h1v1h-1v-1zM28,4h1v1h-1v-1zM23,4h2v1h-2v-1zM21,4h1v1h-1v-1zM18,4h2v1h-2v-1zM10,4h3v1h-3v-1zM8,4h1v1h-1v-1zM6,4h1v1h-1v-1zM2,4h3v1h-3v-1zM0,4h1v1h-1v-1zM36,3h1v1h-1v-1zM32,3h3v1h-3v-1zM30,3h1v1h-1v-1zM25,3h2v1h-2v-1zM22,3h2v1h-2v-1zM16,3h2v1h-2v-1zM8,3h4v1h-4v-1zM6,3h1v1h-1v-1zM2,3h3v1h-3v-1zM0,3h1v1h-1v-1zM36,2h1v1h-1v-1zM32,2h3v1h-3v-1zM30,2h1v1h-1v-1zM28,2h1v1h-1v-1zM26,2h1v1h-1v-1zM21,2h3v1h-3v-1zM16,2h1v1h-1v-1zM13,2h2v1h-2v-1zM8,2h1v1h-1v-1zM6,2h1v1h-1v-1zM2,2h3v1h-3v-1zM0,2h1v1h-1v-1zM36,1h1v1h-1v-1zM30,1h1v1h-1v-1zM27,1h1v1h-1v-1zM24,1h2v1h-2v-1zM20,1h1v1h-1v-1zM16,1h1v1h-1v-1zM13,1h2v1h-2v-1zM10,1h1v1h-1v-1zM6,1h1v1h-1v-1zM0,1h1v1h-1v-1zM30,0h7v1h-7v-1zM28,0h1v1h-1v-1zM19,0h5v1h-5v-1zM17,0h1v1h-1v-1zM9,0h3v1h-3v-1zM0,0h7v1h-7v-1z"/></svg>